<?xml version="1.0" encoding="UTF-8"?>
<svg xmlns="http://www.w3.org/2000/svg" version="1.1" width="100" height="100" viewBox="0 0 100 100"><rect x="0" y="0" width="100" height="100" fill="#ffffff"/><g transform="scale(3.448)"><g transform="translate(0,0)"><path fill-rule="evenodd" d="M9 0L9 1L8 1L8 2L9 2L9 3L8 3L8 4L10 4L10 7L11 7L11 4L12 4L12 5L13 5L13 4L14 4L14 7L15 7L15 6L16 6L16 8L15 8L15 9L14 9L14 8L13 8L13 6L12 6L12 9L14 9L14 10L11 10L11 11L10 11L10 9L11 9L11 8L6 8L6 9L8 9L8 10L9 10L9 11L7 11L7 10L6 10L6 11L5 11L5 10L3 10L3 9L5 9L5 8L0 8L0 9L2 9L2 10L3 10L3 12L2 12L2 11L1 11L1 10L0 10L0 11L1 11L1 12L0 12L0 13L2 13L2 14L1 14L1 15L0 15L0 21L1 21L1 17L2 17L2 14L3 14L3 15L4 15L4 16L3 16L3 18L2 18L2 19L4 19L4 21L5 21L5 19L7 19L7 20L6 20L6 21L8 21L8 23L10 23L10 22L11 22L11 21L12 21L12 22L13 22L13 23L12 23L12 25L14 25L14 28L15 28L15 27L16 27L16 28L17 28L17 29L18 29L18 28L17 28L17 27L20 27L20 28L19 28L19 29L20 29L20 28L22 28L22 27L23 27L23 29L25 29L25 28L26 28L26 29L27 29L27 28L28 28L28 26L29 26L29 23L28 23L28 24L26 24L26 23L27 23L27 22L29 22L29 20L28 20L28 19L27 19L27 16L28 16L28 15L27 15L27 12L28 12L28 11L27 11L27 12L25 12L25 13L24 13L24 14L23 14L23 13L19 13L19 12L16 12L16 11L17 11L17 10L20 10L20 12L24 12L24 11L22 11L22 10L25 10L25 9L26 9L26 8L25 8L25 9L24 9L24 8L23 8L23 9L22 9L22 8L21 8L21 6L20 6L20 9L18 9L18 8L17 8L17 6L18 6L18 7L19 7L19 6L18 6L18 5L20 5L20 3L21 3L21 2L19 2L19 1L21 1L21 0L18 0L18 1L17 1L17 2L19 2L19 4L18 4L18 3L16 3L16 1L15 1L15 0L14 0L14 1L11 1L11 2L10 2L10 0ZM12 2L12 4L13 4L13 3L14 3L14 4L15 4L15 5L16 5L16 6L17 6L17 4L15 4L15 2ZM10 3L10 4L11 4L11 3ZM8 5L8 7L9 7L9 5ZM27 8L27 9L28 9L28 10L29 10L29 9L28 9L28 8ZM15 9L15 10L17 10L17 9ZM4 11L4 12L3 12L3 14L4 14L4 13L5 13L5 14L7 14L7 13L6 13L6 12L7 12L7 11L6 11L6 12L5 12L5 11ZM12 11L12 13L11 13L11 12L10 12L10 13L11 13L11 14L9 14L9 15L6 15L6 16L10 16L10 17L11 17L11 18L8 18L8 17L6 17L6 18L7 18L7 19L8 19L8 20L9 20L9 19L10 19L10 20L11 20L11 18L13 18L13 19L12 19L12 21L13 21L13 22L14 22L14 21L15 21L15 22L16 22L16 23L17 23L17 24L16 24L16 25L15 25L15 24L14 24L14 23L13 23L13 24L14 24L14 25L15 25L15 26L16 26L16 25L17 25L17 26L18 26L18 25L19 25L19 26L20 26L20 24L18 24L18 23L17 23L17 22L20 22L20 20L19 20L19 19L21 19L21 18L19 18L19 17L20 17L20 16L21 16L21 17L26 17L26 16L27 16L27 15L26 15L26 13L25 13L25 14L24 14L24 16L23 16L23 15L21 15L21 14L18 14L18 15L17 15L17 16L16 16L16 15L15 15L15 14L17 14L17 13L15 13L15 12L14 12L14 11ZM8 12L8 13L9 13L9 12ZM13 12L13 13L12 13L12 14L13 14L13 13L14 13L14 14L15 14L15 13L14 13L14 12ZM28 13L28 14L29 14L29 13ZM10 15L10 16L11 16L11 15ZM12 15L12 17L14 17L14 18L15 18L15 21L16 21L16 22L17 22L17 21L18 21L18 20L17 20L17 18L15 18L15 17L14 17L14 16L15 16L15 15L14 15L14 16L13 16L13 15ZM19 15L19 16L20 16L20 15ZM17 16L17 17L18 17L18 16ZM4 17L4 19L5 19L5 17ZM28 17L28 18L29 18L29 17ZM18 18L18 19L19 19L19 18ZM22 18L22 19L23 19L23 18ZM24 19L24 20L25 20L25 21L26 21L26 20L27 20L27 19ZM2 20L2 21L3 21L3 20ZM13 20L13 21L14 21L14 20ZM16 20L16 21L17 21L17 20ZM21 21L21 24L24 24L24 21ZM22 22L22 23L23 23L23 22ZM8 24L8 29L13 29L13 28L12 28L12 27L13 27L13 26L10 26L10 27L9 27L9 24ZM10 24L10 25L11 25L11 24ZM17 24L17 25L18 25L18 24ZM25 24L25 25L21 25L21 26L25 26L25 27L26 27L26 28L27 28L27 25L26 25L26 24ZM25 25L25 26L26 26L26 25ZM10 27L10 28L11 28L11 27ZM0 0L0 7L7 7L7 0ZM1 1L1 6L6 6L6 1ZM2 2L2 5L5 5L5 2ZM22 0L22 7L29 7L29 0ZM23 1L23 6L28 6L28 1ZM24 2L24 5L27 5L27 2ZM0 22L0 29L7 29L7 22ZM1 23L1 28L6 28L6 23ZM2 24L2 27L5 27L5 24Z" fill="#000000"/></g></g></svg>
